<mxfile host="app.diagrams.net" modified="2023-01-06T11:13:23.029Z" agent="5.0 (Macintosh; Intel Mac OS X 10_15_7) AppleWebKit/537.36 (KHTML, like Gecko) Chrome/108.0.0.0 Safari/537.36" etag="9kQhUqdNiYQElvSCTY8T" version="20.5.1" type="github">
  <diagram id="zjgaxLtPsT7MAD6WIeGV" name="Page-1">
    <mxGraphModel dx="1426" dy="627" grid="1" gridSize="10" guides="1" tooltips="1" connect="1" arrows="1" fold="1" page="1" pageScale="1" pageWidth="827" pageHeight="1169" math="0" shadow="0">
      <root>
        <mxCell id="0" />
        <mxCell id="1" parent="0" />
        <mxCell id="uo8T6RAjFNcN5sfBOD9w-16" style="edgeStyle=orthogonalEdgeStyle;rounded=0;orthogonalLoop=1;jettySize=auto;html=1;exitX=0.25;exitY=1;exitDx=0;exitDy=0;" edge="1" parent="1" source="75O6CKSL_VJtkJ3TE7s8-1" target="75O6CKSL_VJtkJ3TE7s8-2">
          <mxGeometry relative="1" as="geometry" />
        </mxCell>
        <mxCell id="uo8T6RAjFNcN5sfBOD9w-17" style="edgeStyle=orthogonalEdgeStyle;rounded=0;orthogonalLoop=1;jettySize=auto;html=1;exitX=0.75;exitY=1;exitDx=0;exitDy=0;" edge="1" parent="1" source="75O6CKSL_VJtkJ3TE7s8-1" target="75O6CKSL_VJtkJ3TE7s8-3">
          <mxGeometry relative="1" as="geometry" />
        </mxCell>
        <mxCell id="75O6CKSL_VJtkJ3TE7s8-1" value="Users acquired on Retail Webplayer (364.6k)" style="rounded=1;whiteSpace=wrap;html=1;" parent="1" vertex="1">
          <mxGeometry x="340" y="40" width="180" height="50" as="geometry" />
        </mxCell>
        <mxCell id="75O6CKSL_VJtkJ3TE7s8-2" value="No streaming activity in T30 Period (274.4k) i.e., 75.26%" style="rounded=1;whiteSpace=wrap;html=1;" parent="1" vertex="1">
          <mxGeometry x="170" y="150" width="180" height="60" as="geometry" />
        </mxCell>
        <mxCell id="uo8T6RAjFNcN5sfBOD9w-18" style="edgeStyle=orthogonalEdgeStyle;rounded=0;orthogonalLoop=1;jettySize=auto;html=1;exitX=1;exitY=0.25;exitDx=0;exitDy=0;entryX=0;entryY=0.5;entryDx=0;entryDy=0;" edge="1" parent="1" source="75O6CKSL_VJtkJ3TE7s8-3" target="uo8T6RAjFNcN5sfBOD9w-1">
          <mxGeometry relative="1" as="geometry" />
        </mxCell>
        <mxCell id="uo8T6RAjFNcN5sfBOD9w-19" style="edgeStyle=orthogonalEdgeStyle;rounded=0;orthogonalLoop=1;jettySize=auto;html=1;exitX=0.5;exitY=1;exitDx=0;exitDy=0;" edge="1" parent="1" source="75O6CKSL_VJtkJ3TE7s8-3" target="uo8T6RAjFNcN5sfBOD9w-7">
          <mxGeometry relative="1" as="geometry" />
        </mxCell>
        <mxCell id="75O6CKSL_VJtkJ3TE7s8-3" value="Streaming activity present in T30 period (90.2k) i.e., 24.74%" style="rounded=1;whiteSpace=wrap;html=1;" parent="1" vertex="1">
          <mxGeometry x="510" y="150" width="180" height="60" as="geometry" />
        </mxCell>
        <mxCell id="uo8T6RAjFNcN5sfBOD9w-1" value="Considering any &#xa;stream above 0 sec" style="swimlane;horizontal=0;startSize=40;fillColor=#D1D1D1;" vertex="1" parent="1">
          <mxGeometry x="750" y="140" width="330" height="190" as="geometry" />
        </mxCell>
        <mxCell id="uo8T6RAjFNcN5sfBOD9w-2" value="Engagement Summary" style="swimlane;fontStyle=0;childLayout=stackLayout;horizontal=1;startSize=30;horizontalStack=0;resizeParent=1;resizeParentMax=0;resizeLast=0;collapsible=1;marginBottom=0;" vertex="1" parent="uo8T6RAjFNcN5sfBOD9w-1">
          <mxGeometry x="40" width="290" height="150" as="geometry" />
        </mxCell>
        <mxCell id="uo8T6RAjFNcN5sfBOD9w-3" value="1. Total Streaming duration = 1.29 Billion secondÂ " style="text;strokeColor=none;fillColor=none;align=left;verticalAlign=middle;spacingLeft=4;spacingRight=4;overflow=hidden;points=[[0,0.5],[1,0.5]];portConstraint=eastwest;rotatable=0;" vertex="1" parent="uo8T6RAjFNcN5sfBOD9w-2">
          <mxGeometry y="30" width="290" height="30" as="geometry" />
        </mxCell>
        <mxCell id="uo8T6RAjFNcN5sfBOD9w-4" value="2. Total Streams = 9.66 Million" style="text;strokeColor=none;fillColor=none;align=left;verticalAlign=middle;spacingLeft=4;spacingRight=4;overflow=hidden;points=[[0,0.5],[1,0.5]];portConstraint=eastwest;rotatable=0;" vertex="1" parent="uo8T6RAjFNcN5sfBOD9w-2">
          <mxGeometry y="60" width="290" height="30" as="geometry" />
        </mxCell>
        <mxCell id="uo8T6RAjFNcN5sfBOD9w-5" value="3. Avg Streams per day = 3.6" style="text;strokeColor=none;fillColor=none;align=left;verticalAlign=middle;spacingLeft=4;spacingRight=4;overflow=hidden;points=[[0,0.5],[1,0.5]];portConstraint=eastwest;rotatable=0;" vertex="1" parent="uo8T6RAjFNcN5sfBOD9w-2">
          <mxGeometry y="90" width="290" height="30" as="geometry" />
        </mxCell>
        <mxCell id="uo8T6RAjFNcN5sfBOD9w-6" value="4. Avg playdays in T30 period = 3.6" style="text;strokeColor=none;fillColor=none;align=left;verticalAlign=middle;spacingLeft=4;spacingRight=4;overflow=hidden;points=[[0,0.5],[1,0.5]];portConstraint=eastwest;rotatable=0;" vertex="1" parent="uo8T6RAjFNcN5sfBOD9w-2">
          <mxGeometry y="120" width="290" height="30" as="geometry" />
        </mxCell>
        <mxCell id="uo8T6RAjFNcN5sfBOD9w-20" style="edgeStyle=orthogonalEdgeStyle;rounded=0;orthogonalLoop=1;jettySize=auto;html=1;exitX=0;exitY=0.5;exitDx=0;exitDy=0;entryX=1;entryY=0.5;entryDx=0;entryDy=0;" edge="1" parent="1" source="uo8T6RAjFNcN5sfBOD9w-7" target="uo8T6RAjFNcN5sfBOD9w-12">
          <mxGeometry relative="1" as="geometry" />
        </mxCell>
        <mxCell id="uo8T6RAjFNcN5sfBOD9w-7" value="Users who used mobile music application in T30 period (34.7k) i.e., 9.5% of overall" style="rounded=1;whiteSpace=wrap;html=1;" vertex="1" parent="1">
          <mxGeometry x="485" y="360" width="230" height="60" as="geometry" />
        </mxCell>
        <mxCell id="uo8T6RAjFNcN5sfBOD9w-8" value="Considering any &#xa;stream above 0 sec" style="swimlane;horizontal=0;startSize=40;fillColor=#D1D1D1;" vertex="1" parent="1">
          <mxGeometry x="50" y="430" width="330" height="190" as="geometry" />
        </mxCell>
        <mxCell id="uo8T6RAjFNcN5sfBOD9w-9" value="Engagement Summary" style="swimlane;fontStyle=0;childLayout=stackLayout;horizontal=1;startSize=30;horizontalStack=0;resizeParent=1;resizeParentMax=0;resizeLast=0;collapsible=1;marginBottom=0;" vertex="1" parent="uo8T6RAjFNcN5sfBOD9w-8">
          <mxGeometry x="40" width="290" height="150" as="geometry" />
        </mxCell>
        <mxCell id="uo8T6RAjFNcN5sfBOD9w-10" value="1. Total Streaming duration = 0.878 Billion second" style="text;strokeColor=none;fillColor=none;align=left;verticalAlign=middle;spacingLeft=4;spacingRight=4;overflow=hidden;points=[[0,0.5],[1,0.5]];portConstraint=eastwest;rotatable=0;" vertex="1" parent="uo8T6RAjFNcN5sfBOD9w-9">
          <mxGeometry y="30" width="290" height="30" as="geometry" />
        </mxCell>
        <mxCell id="uo8T6RAjFNcN5sfBOD9w-11" value="2. Total Streams = 6.97 Million" style="text;strokeColor=none;fillColor=none;align=left;verticalAlign=middle;spacingLeft=4;spacingRight=4;overflow=hidden;points=[[0,0.5],[1,0.5]];portConstraint=eastwest;rotatable=0;" vertex="1" parent="uo8T6RAjFNcN5sfBOD9w-9">
          <mxGeometry y="60" width="290" height="30" as="geometry" />
        </mxCell>
        <mxCell id="uo8T6RAjFNcN5sfBOD9w-12" value="3. Avg Streams per day = 6.7" style="text;strokeColor=none;fillColor=none;align=left;verticalAlign=middle;spacingLeft=4;spacingRight=4;overflow=hidden;points=[[0,0.5],[1,0.5]];portConstraint=eastwest;rotatable=0;" vertex="1" parent="uo8T6RAjFNcN5sfBOD9w-9">
          <mxGeometry y="90" width="290" height="30" as="geometry" />
        </mxCell>
        <mxCell id="uo8T6RAjFNcN5sfBOD9w-13" value="4. Avg playdays in T30 period = 5.85" style="text;strokeColor=none;fillColor=none;align=left;verticalAlign=middle;spacingLeft=4;spacingRight=4;overflow=hidden;points=[[0,0.5],[1,0.5]];portConstraint=eastwest;rotatable=0;" vertex="1" parent="uo8T6RAjFNcN5sfBOD9w-9">
          <mxGeometry y="120" width="290" height="30" as="geometry" />
        </mxCell>
      </root>
    </mxGraphModel>
  </diagram>
</mxfile>
